<?xml version="1.0" encoding="utf-8" ?>
<svg xmlns="http://www.w3.org/2000/svg" xmlns:xlink="http://www.w3.org/1999/xlink" width="1024" height="1024">
	<path fill="#452042" d="M492.446 129.297C501.832 128.468 511.422 128.668 520.833 128.829Q526.648 128.95 532.457 129.251Q538.266 129.551 544.062 130.03Q549.859 130.509 555.638 131.167Q561.417 131.824 567.173 132.659Q572.929 133.494 578.657 134.506Q584.385 135.518 590.079 136.706Q595.773 137.893 601.427 139.256Q607.082 140.618 612.692 142.154Q618.302 143.69 623.862 145.398Q629.422 147.106 634.927 148.984Q640.431 150.863 645.876 152.91Q651.32 154.957 656.699 157.17Q662.077 159.384 667.385 161.762Q672.693 164.14 677.926 166.681Q683.158 169.221 688.309 171.922Q693.461 174.622 698.527 177.48Q702.694 179.81 706.802 182.243Q710.91 184.676 714.956 187.211Q719.002 189.746 722.983 192.381Q726.964 195.017 730.878 197.751Q734.792 200.485 738.636 203.316Q742.48 206.147 746.253 209.074Q750.025 212 753.723 215.02Q757.421 218.04 761.042 221.152Q764.663 224.263 768.206 227.464Q771.748 230.665 775.209 233.954Q778.67 237.242 782.048 240.617Q785.426 243.991 788.718 247.448Q792.01 250.906 795.215 254.445Q798.42 257.984 801.536 261.602Q804.651 265.22 807.675 268.914Q810.699 272.609 813.629 276.378Q816.56 280.147 819.395 283.989Q822.23 287.83 824.969 291.741Q827.707 295.652 830.347 299.63Q832.987 303.608 835.526 307.651Q838.065 311.694 840.503 315.8Q842.94 319.905 845.274 324.07Q847.608 328.235 849.838 332.457Q852.067 336.679 854.19 340.955Q856.312 345.232 858.328 349.56Q860.343 353.888 862.249 358.265Q864.156 362.643 865.952 367.066Q867.748 371.49 869.434 375.957Q871.119 380.424 872.691 384.932Q874.264 389.44 875.724 393.985Q877.183 398.531 878.529 403.112Q879.874 407.693 881.105 412.306Q882.08 415.979 882.982 419.67Q883.884 423.361 884.712 427.07Q885.54 430.778 886.294 434.503Q887.047 438.227 887.727 441.966Q888.406 445.704 889.01 449.456Q889.615 453.207 890.144 456.97Q890.674 460.733 891.128 464.505Q891.582 468.278 891.961 472.059Q892.339 475.84 892.642 479.628Q892.946 483.415 893.173 487.208Q893.401 491.001 893.552 494.798Q893.704 498.595 893.78 502.394Q893.855 506.193 893.855 509.993Q893.855 513.793 893.779 517.592Q893.703 521.391 893.552 525.188Q893.4 528.985 893.172 532.778Q892.945 536.571 892.641 540.359Q892.338 544.146 891.959 547.927Q891.581 551.708 891.126 555.481Q890.672 559.254 890.142 563.016Q889.613 566.779 889.008 570.531Q888.404 574.282 887.724 578.021Q887.045 581.759 886.291 585.484Q885.537 589.208 884.709 592.917Q883.881 596.625 882.979 600.316Q882.077 604.008 881.102 607.68Q880.126 611.353 879.078 615.005Q878.029 618.657 876.908 622.288Q875.786 625.918 874.593 629.526Q873.399 633.134 872.133 636.716Q870.868 640.299 869.531 643.856Q868.194 647.413 866.787 650.943C859.494 669.187 850.594 686.371 840.889 703.409C847.517 709.331 852.857 716.319 858.649 723.02C865.939 731.454 873.474 739.737 880.429 748.45C857.35 747.72 834.289 748.311 811.207 748.431C804.405 757.859 796.557 767.013 788.815 775.686C737.691 832.953 666.678 871.6 591.638 886.701C570.696 890.916 549.434 893.04 528.125 894.256C512.539 895.035 497.047 894.384 481.505 893.223Q477.524 892.902 473.551 892.5Q469.578 892.098 465.614 891.615Q461.65 891.131 457.696 890.566Q453.743 890.001 449.802 889.356Q445.861 888.71 441.934 887.983Q438.007 887.257 434.096 886.45Q430.185 885.643 426.291 884.756Q422.398 883.869 418.523 882.902Q414.648 881.936 410.794 880.89Q406.94 879.844 403.108 878.719Q399.276 877.595 395.468 876.391Q391.66 875.188 387.878 873.907Q384.095 872.626 380.34 871.268Q376.584 869.91 372.858 868.475Q369.131 867.04 365.434 865.529Q361.738 864.017 358.073 862.431Q354.408 860.844 350.777 859.182Q347.145 857.521 343.549 855.785Q339.952 854.05 336.392 852.24Q332.832 850.431 329.309 848.55Q325.787 846.668 322.304 844.714Q318.821 842.761 315.379 840.736Q311.936 838.712 308.536 836.617Q305.137 834.522 301.78 832.358Q298.424 830.194 295.113 827.961Q291.802 825.729 288.537 823.429Q285.272 821.129 282.055 818.762Q278.838 816.396 275.671 813.964Q272.503 811.532 269.386 809.036Q266.269 806.539 263.204 803.979Q260.139 801.42 257.127 798.798Q254.115 796.175 251.157 793.492C236.471 780.189 223.397 765.658 210.498 750.666C187.821 750.068 165.016 750.488 142.326 750.502C147.534 743.438 154.179 736.923 159.968 730.276C168.321 720.685 176.23 710.755 184.234 700.877C177.334 691.23 171.569 679.956 166.409 669.281Q164.502 665.347 162.691 661.368Q160.88 657.389 159.165 653.368Q157.451 649.346 155.834 645.285Q154.218 641.223 152.699 637.123Q151.181 633.024 149.763 628.888Q148.344 624.753 147.026 620.585Q145.708 616.417 144.491 612.218Q143.274 608.019 142.159 603.792Q141.043 599.565 140.031 595.312Q139.018 591.059 138.108 586.783Q137.199 582.507 136.393 578.211Q135.587 573.914 134.885 569.599Q134.183 565.284 133.585 560.953Q132.988 556.622 132.495 552.278Q132.003 547.935 131.615 543.58Q131.228 539.226 130.946 534.863C123.522 432.169 160.325 333.965 227.4 256.691C294.549 179.334 391.165 136.483 492.446 129.297ZM193.194 690.728Q216.168 664.564 238.354 637.729L279.499 589.125L301.509 563.017C305.74 557.999 309.852 552.717 314.397 547.992Q290.879 515.665 266.232 484.19C256.962 495.234 248.361 506.819 239.315 518.045Q205.104 560.026 171.44 602.447C166.349 584.088 163.134 565.474 160.671 546.595C159.996 539.96 159.313 533.367 159.419 526.686C158.158 515.028 159.164 502.565 159.435 490.828C159.355 476.127 162.308 460.628 165.053 446.233C177.761 379.607 205.91 324.224 251.562 273.961Q254.452 270.764 257.421 267.64Q260.389 264.516 263.434 261.466Q266.479 258.416 269.598 255.442Q272.717 252.468 275.908 249.573Q279.1 246.677 282.362 243.861Q285.624 241.044 288.955 238.31Q292.285 235.575 295.683 232.923Q299.08 230.271 302.541 227.704Q306.003 225.137 309.527 222.657Q313.051 220.176 316.635 217.783Q320.219 215.39 323.861 213.086Q327.503 210.783 331.201 208.57Q334.899 206.357 338.651 204.236Q342.402 202.115 346.205 200.087Q350.008 198.059 353.859 196.126Q357.711 194.193 361.609 192.355Q365.507 190.518 369.449 188.777Q373.392 187.036 377.376 185.393Q381.36 183.751 385.384 182.207Q389.407 180.663 393.468 179.219Q397.528 177.775 401.623 176.431Q405.718 175.088 409.844 173.846Q413.971 172.604 418.127 171.465Q422.283 170.325 426.466 169.288Q430.649 168.252 434.857 167.319Q439.064 166.386 443.293 165.557Q447.522 164.728 451.771 164.004Q456.019 163.28 460.284 162.661Q464.549 162.042 468.828 161.529Q473.106 161.016 477.397 160.608Q481.687 160.2 485.986 159.899Q490.285 159.597 494.59 159.402Q497.793 159.239 500.999 159.135Q504.204 159.031 507.411 158.986Q510.618 158.94 513.825 158.953Q517.032 158.966 520.238 159.037Q523.445 159.109 526.649 159.239Q529.854 159.369 533.055 159.557Q536.257 159.745 539.455 159.992Q542.652 160.239 545.845 160.544Q549.038 160.849 552.224 161.212Q555.411 161.576 558.59 161.997Q561.769 162.418 564.941 162.898Q568.112 163.377 571.274 163.914Q574.435 164.451 577.587 165.046Q580.739 165.641 583.879 166.293Q587.019 166.945 590.147 167.654Q593.274 168.363 596.389 169.13Q599.503 169.896 602.603 170.719Q605.703 171.542 608.787 172.421Q611.871 173.301 614.939 174.236Q618.006 175.172 621.057 176.163Q624.107 177.154 627.138 178.201Q630.17 179.248 633.182 180.35Q636.193 181.452 639.185 182.609Q642.176 183.766 645.146 184.977Q648.115 186.188 651.063 187.453Q654.01 188.718 656.933 190.037Q659.857 191.356 662.756 192.727Q665.655 194.099 668.528 195.524Q671.401 196.948 674.248 198.425Q677.095 199.902 679.915 201.43Q682.735 202.959 685.526 204.538Q688.317 206.118 691.079 207.748C710.523 218.994 729.238 231.699 745.847 246.875C784.304 282.016 817.491 326.154 837.372 374.554C842.705 387.536 846.877 401.195 850.672 414.694Q853.18 423.353 855.193 432.14Q857.206 440.927 858.718 449.815Q860.229 458.702 861.233 467.661Q862.238 476.62 862.733 485.621C863.451 495.489 863.657 505.282 863.651 515.172C863.583 524.413 863.616 533.519 862.369 542.699C861.989 553.08 856.91 590.698 852.736 599.129C849.706 606.614 849.763 625.146 849.085 634.162C848.441 642.732 847.517 651.282 846.937 659.856C853.346 651.679 862.91 621.584 866.103 610.403C871.137 592.775 875.322 574.98 877.688 556.785C887.367 482.337 872.973 401.534 836.355 335.824Q834.135 331.754 831.813 327.74Q829.492 323.727 827.071 319.773Q824.649 315.819 822.13 311.927Q819.61 308.035 816.994 304.208Q814.377 300.38 811.665 296.62Q808.954 292.859 806.149 289.167Q803.344 285.476 800.447 281.856Q797.55 278.236 794.563 274.69Q791.577 271.143 788.502 267.673Q785.427 264.203 782.267 260.811Q779.106 257.419 775.861 254.107Q772.617 250.795 769.29 247.566Q765.963 244.336 762.557 241.192Q759.15 238.047 755.665 234.988Q752.181 231.93 748.621 228.959Q745.061 225.989 741.427 223.109Q737.794 220.229 734.09 217.441Q730.385 214.653 726.612 211.959Q722.839 209.265 718.999 206.666Q715.16 204.068 711.256 201.566Q707.352 199.064 703.387 196.661Q699.422 194.258 695.398 191.955Q691.374 189.653 687.294 187.452Q683.213 185.25 679.079 183.152Q674.944 181.054 670.758 179.06Q666.573 177.066 662.338 175.178Q658.104 173.29 653.823 171.508Q649.543 169.727 645.219 168.053Q640.896 166.38 636.531 164.815Q632.167 163.25 627.765 161.796Q623.362 160.341 618.925 158.997Q614.488 157.653 610.018 156.421Q605.69 155.22 601.335 154.125Q596.979 153.03 592.598 152.042Q588.217 151.054 583.812 150.174Q579.408 149.293 574.984 148.521Q570.56 147.749 566.118 147.085Q561.676 146.421 557.219 145.866Q552.763 145.311 548.293 144.866Q543.824 144.42 539.346 144.084Q534.867 143.748 530.382 143.522Q525.896 143.295 521.407 143.179Q516.917 143.062 512.426 143.056Q507.934 143.049 503.444 143.153Q498.954 143.256 494.468 143.47Q489.982 143.683 485.503 144.006Q481.023 144.329 476.553 144.762Q472.082 145.194 467.624 145.736Q463.166 146.278 458.722 146.929Q454.278 147.58 449.851 148.339Q445.425 149.099 441.018 149.966Q436.612 150.834 432.228 151.809Q427.844 152.784 423.485 153.867Q419.126 154.949 414.795 156.138Q410.464 157.326 406.163 158.621Q401.862 159.915 397.595 161.314Q393.327 162.713 389.095 164.216Q384.863 165.72 380.669 167.326Q376.475 168.932 372.321 170.641Q368.168 172.35 364.057 174.159Q359.947 175.969 355.882 177.879Q351.817 179.789 347.8 181.797Q343.783 183.806 339.816 185.913Q335.85 188.019 331.936 190.222Q327.971 192.437 324.063 194.75Q320.154 197.063 316.303 199.471Q312.453 201.879 308.663 204.382Q304.873 206.885 301.146 209.48Q297.419 212.076 293.757 214.763Q290.096 217.449 286.501 220.226Q282.907 223.002 279.382 225.866Q275.857 228.73 272.405 231.68Q268.952 234.631 265.573 237.665Q262.194 240.7 258.89 243.817Q255.587 246.934 252.362 250.132Q249.137 253.329 245.992 256.606Q242.846 259.882 239.783 263.235Q236.72 266.588 233.74 270.015Q230.76 273.443 227.866 276.943Q224.972 280.443 222.165 284.013Q219.358 287.584 216.64 291.222Q213.922 294.861 211.295 298.566Q208.667 302.27 206.132 306.039Q203.597 309.807 201.156 313.637Q198.714 317.466 196.368 321.355Q194.022 325.244 191.773 329.19Q189.524 333.135 187.373 337.135Q185.221 341.135 183.17 345.187Q181.118 349.238 179.166 353.34Q177.215 357.441 175.366 361.589Q173.517 365.737 171.77 369.929Q170.024 374.122 168.381 378.356Q166.739 382.59 165.201 386.864Q163.664 391.138 162.233 395.448Q160.801 399.758 159.477 404.102Q158.152 408.446 156.935 412.822Q156.058 415.884 155.237 418.961Q154.415 422.038 153.649 425.129Q152.884 428.22 152.174 431.325Q151.464 434.43 150.81 437.547Q150.157 440.664 149.56 443.792Q148.962 446.92 148.422 450.059Q147.881 453.197 147.397 456.345Q146.913 459.493 146.486 462.649Q146.06 465.805 145.69 468.968Q145.32 472.132 145.007 475.301Q144.694 478.47 144.439 481.645Q144.184 484.819 143.986 487.998Q143.788 491.177 143.647 494.358Q143.507 497.54 143.424 500.724Q143.341 503.907 143.315 507.092Q143.289 510.277 143.321 513.461Q143.353 516.646 143.443 519.829Q143.532 523.013 143.679 526.194Q143.826 529.376 144.031 532.554Q144.235 535.732 144.497 538.906Q144.759 542.08 145.078 545.249Q145.397 548.418 145.773 551.58Q146.149 554.743 146.583 557.898Q147.016 561.053 147.506 564.2Q147.996 567.347 148.543 570.484Q149.09 573.622 149.694 576.749Q150.297 579.876 150.957 582.991Q151.617 586.107 152.333 589.21Q153.049 592.313 153.821 595.403Q154.593 598.493 155.421 601.568Q156.249 604.644 157.132 607.704Q158.015 610.764 158.953 613.807Q162.241 623.827 166.034 633.666Q169.827 643.505 174.115 653.139Q178.404 662.773 183.177 672.176Q187.949 681.58 193.194 690.728Z"/>
	<path fill="#F6CB5F" d="M453.567 451.493C459.36 456.181 465.486 468.64 468.671 475.503Q459.17 477.722 449.628 479.758L436.327 482.911C441.473 472.111 447.603 461.854 453.567 451.493Z"/>
	<path fill="#D69144" d="M568.934 449.366C574.169 454.457 584.499 475.29 588.566 482.828L577.884 480.631C570.179 478.535 562.125 477.157 554.311 475.453C558.436 466.495 563.739 457.744 568.934 449.366Z"/>
	<path fill="#F6CB5F" d="M470.968 482.145C471.199 482.146 471.435 482.105 471.663 482.147C475.122 482.785 483.691 498.577 485.897 502.262Q457.975 507.212 430.108 512.457C425.946 513.255 421.8 514.185 417.651 515.053C422.92 507.221 427.34 498.181 431.838 489.861C444.928 488.215 457.991 484.594 470.968 482.145Z"/>
	<path fill="#D69144" d="M549.856 481.895C563.987 484.858 578.194 487.517 592.367 490.275C597.951 498.153 602.199 507.172 607.338 515.376Q601.939 514.407 596.557 513.348C577.068 509.058 557.127 506.479 537.766 501.7C542.103 495.436 545.873 488.419 549.856 481.895Z"/>
	<path fill="#D69144" d="M583.311 458.911C589.841 461.181 596.165 464.704 602.422 467.64Q622.417 476.854 641.907 487.094C647.6 490.095 653.973 492.974 658.937 497.112C666.944 503.787 673.835 513.871 679.798 522.412C669.407 520.335 659.238 514.304 649.405 510.335C634.04 504.133 618.558 498.603 602.947 493.075C595.875 482.131 589.658 470.306 583.311 458.911Z"/>
	<path fill="#D69144" d="M607.361 501.445C620.485 505.286 680.979 528.542 689.814 535.317C697.52 541.227 703.913 551.437 709.706 559.206C698.901 556.797 688.333 551.692 677.923 547.961Q650.923 538.216 623.505 529.72C618.529 520.068 612.63 510.938 607.361 501.445Z"/>
	<path fill="#F6CB5F" d="M442.647 455.411L443.331 455.765C442.918 457.717 426.56 485.824 423.596 491.616C415.657 493.913 407.87 497.324 400.179 500.351L365.585 513.976C359.398 516.428 353.088 519.348 346.689 521.155L346.53 521.206L345.987 520.923C346.013 520.768 346.022 520.608 346.066 520.457C347.141 516.74 366.211 494.857 370.241 492.2C376.455 488.103 384.757 485.319 391.52 481.989C408.7 473.53 426.051 464.976 442.647 455.411Z"/>
	<path fill="#F6CB5F" d="M416.909 500.542L417.201 500.809C417.461 504.34 404.333 525.811 401.735 529.794C393.788 533.106 385.151 535.474 376.972 538.199C356.807 544.917 336.444 551.156 316.419 558.263L316.177 558.108L316.209 557.256C319.95 552.432 333.797 534.341 337.504 531.791C343.361 527.762 367.669 520.188 376.117 516.939C389.776 511.686 403.133 505.464 416.909 500.542Z"/>
	<path fill="#D69144" d="M627.882 537.779C633.32 538.936 638.593 541.203 643.805 543.116L667.443 551.746C681.112 556.676 695.095 560.656 708.717 565.698C711.255 566.638 714.308 567.63 716.578 569.12C722.137 572.769 734.472 587.549 737.276 593.664C728.769 591.958 720.666 588.632 712.416 586.013L675.067 574.33C664.653 571.08 654.291 567.662 643.631 565.282C638.007 556.508 632.705 547.026 627.882 537.779Z"/>
	<path fill="#D69144" d="M647.87 572.943C654.914 574.933 661.843 577.512 668.851 579.66L745.236 603.404C751.813 611.25 758.748 618.591 765.097 626.671C744.736 621.824 724.925 615.639 704.849 609.761C690.138 605.455 675.302 601.545 660.621 597.148C656.059 589.299 651.497 581.273 647.87 572.943Z"/>
	<path fill="#F6CB5F" d="M394.812 538.451C395.807 538.343 395.333 538.241 396.221 538.808C396.028 543.969 384.782 560.81 381.466 566.031C369.664 570.192 357.378 573.155 345.362 576.634L287.667 593.946L286.428 593.85L286.444 592.97C288.862 588.474 302.704 570.33 306.799 568.38C307.015 568.278 307.238 568.192 307.454 568.091C315.607 564.291 325.145 562.086 333.728 559.238C354.126 552.467 374.669 545.95 394.812 538.451Z"/>
	<path fill="#D69144" d="M534.27 508.25C551.633 510.681 569.185 514.487 586.358 518.021C594.279 519.651 602.269 521.599 610.274 522.733C615.261 530.964 620.266 539.153 624.374 547.867L612.732 545.616C582.211 541.024 552.06 533.756 521.559 529.151C526.044 522.37 529.805 515.089 534.27 508.25Z"/>
	<path fill="#F6CB5F" d="M488.306 508.659L489.194 508.67C493.744 511.004 500.863 524.802 503.397 529.728C473.05 534.317 442.903 540.72 412.621 545.805Q406.305 546.895 399.973 547.895C403.821 538.919 408.916 530.497 413.761 522.033C438.659 518.433 463.505 513.013 488.306 508.659Z"/>
	<path fill="#F6CB5F" d="M376.054 574.13C376.22 577.712 363.26 598.552 360.291 601.937L258.555 627.47L258.564 626.026C261.219 621.129 273.546 606.269 277.982 603.261C281.829 600.653 304.836 595.527 310.684 593.825Q343.478 584.339 376.054 574.13Z"/>
	<path fill="#D69144" d="M665.272 605.257C675.282 607.674 685.248 611.231 695.146 614.136C721.076 621.747 746.938 629.678 773.13 636.339C779.954 643.857 786.444 651.282 792.22 659.674C769.192 654.512 746.342 648.776 723.385 643.327C709.162 639.951 694.708 637.083 680.627 633.18C675.184 624.353 669.586 614.677 665.272 605.257Z"/>
	<path fill="#F6CB5F" d="M355.553 609.618C355.912 609.89 355.674 609.671 355.991 610.483C351.597 619.954 345.749 628.872 340.382 637.818L231.487 659.348L231.195 659.149L231.072 658.295C235.38 649.922 243.916 642.185 250.333 635.361C263.463 633.301 276.478 629.556 289.373 626.363Q322.517 618.206 355.553 609.618Z"/>
	<path fill="#F6CB5F" d="M334.997 645.185L335.191 645.588C333.748 651.03 323.865 665.957 320.513 671.669Q263.005 680.352 205.624 689.846L204.97 689.265C206.477 685.449 220.063 670.485 223.664 667.558L334.997 645.185Z"/>
	<path fill="#D69144" d="M685.239 641.769C696.809 643.576 708.198 646.931 719.611 649.572L801.221 669.323C806.677 675.584 812.132 681.911 817.019 688.631C802.411 687.999 785.046 684.067 770.452 681.718C747.371 678.003 723.959 674.895 701.066 670.195C696.685 660.511 690.64 650.919 685.239 641.769Z"/>
	<path fill="#D69144" d="M728.264 715.655C740.688 717.214 753.66 717.083 766.181 717.965L847.959 724.104C852.017 727.868 856.075 731.771 859.525 736.109C860.622 737.488 861.854 738.835 861.657 740.657L860.125 740.987C821.511 740.885 782.817 742.614 744.201 743.287C740.948 737.919 728.846 720.47 728.264 715.655Z"/>
	<path fill="#F6CB5F" d="M311.457 679.694C312.049 679.611 312.367 679.556 312.995 679.52C313.993 679.462 314.766 679.368 315.534 680.059C311.776 689.141 305.462 698.125 300.724 706.801C287.57 708.781 273.779 709.263 260.497 710.402L185.057 716.799C184.854 716.83 184.653 716.873 184.449 716.89C183.149 717.002 182.336 717.107 181.328 716.264C183.227 711.251 193.411 702.052 197.544 697.708C215.879 694.006 234.648 691.515 253.137 688.6C272.574 685.536 291.916 682.058 311.457 679.694Z"/>
	<path fill="#F6CB5F" d="M289.973 714.694C292.002 714.533 294.071 714.535 296.107 714.459C290.762 723.573 285.776 733.46 279.606 742.015L165.078 742.015L159.127 741.972C164.763 736.07 169.682 729.541 175.491 723.746C191.419 723.25 207.321 721.728 223.201 720.443Q256.606 717.795 289.973 714.694Z"/>
	<path fill="#D69144" d="M705.998 678.051L770.898 688.627C788.946 691.46 807.185 693.761 825.11 697.27C830.305 703.728 835.832 709.698 840.78 716.389C813.868 714.005 786.738 712.549 759.766 711.025C747.553 710.334 735.17 710.099 723 708.916C717.858 698.449 711.658 688.266 705.998 678.051Z"/>
	<path fill="#D69144" d="M514.985 534.84C519.246 535.567 523.565 535.953 527.831 536.705C546.24 539.953 564.582 543.824 582.984 547.176C598.186 549.946 613.619 552.286 628.69 555.674C633.78 563.505 637.782 572.142 642.563 580.185C635.506 579.343 628.469 577.914 621.415 576.952C607.688 575.081 593.901 573.664 580.177 571.767C558.469 568.766 536.83 565.329 514.99 563.396L514.985 534.84Z"/>
	<path fill="#F6CB5F" d="M506.276 535.609C507.492 535.587 507.201 535.567 508.03 536.252C509.918 543.072 509.045 556.153 508.402 563.378C491.369 566.109 474.137 568.111 457.029 570.369C433.385 573.489 409.794 576.717 386.1 579.466C385.085 579.612 384.28 579.595 383.264 579.466L382.969 578.851C384.87 570.84 391.659 561.813 395.985 554.805Q451.288 546.114 506.276 535.609Z"/>
	<path fill="#F6CB5F" d="M507.501 570.173C507.732 570.28 508.11 570.765 508.292 570.958C509.803 579.804 508.998 589.922 508.415 598.863C490.289 599.765 472.032 602.202 453.971 604.008Q409.951 608.428 365.887 612.375C365.087 612.086 365.486 612.324 364.778 611.526C366.12 604.226 373.688 593.781 377.645 587.306C401.488 583.729 425.42 581.202 449.318 578.076C468.734 575.537 488.031 572.317 507.501 570.173Z"/>
	<path fill="#D69144" d="M514.982 569.879L646.806 587.654C650.967 596.121 655.716 604.427 660.089 612.802C645.847 611.751 631.566 609.856 617.333 608.523L514.998 598.553L514.982 569.879Z"/>
	<path fill="#F6CB5F" d="M505.346 605.718C506.374 605.575 507.028 605.445 508.007 605.839C510.311 610.487 508.869 629.212 508.698 635.485C489.101 635.525 469.339 637.845 449.776 639.094L351.436 644.995C349.609 645.034 347.822 644.989 345.999 644.864C345.624 641.388 357.475 623.848 360.061 619.685C379.5 616.764 399.295 615.416 418.864 613.673L505.346 605.718Z"/>
	<path fill="#D69144" d="M514.991 605.488C533.502 605.086 552.923 608.589 571.345 610.511C602.471 613.758 633.677 616.579 664.763 620.168C669.986 628.399 674.661 637.465 679.129 646.137C662.898 643.734 646.089 643.833 629.72 642.745L514.995 635.393L514.991 605.488Z"/>
	<path fill="#F6CB5F" d="M503.754 642.21L508.784 641.989Q508.849 658.243 508.718 674.497C451.364 674.436 393.982 676.212 336.625 676.507L327.171 676.446C332.049 668.871 336.418 660.446 340.543 652.435C360.681 650.327 380.971 649.856 401.172 648.6L503.754 642.21Z"/>
	<path fill="#D69144" d="M514.719 641.896C530.307 643.619 546.2 643.898 561.866 644.787Q603.704 647.241 645.504 650.274C657.89 651.204 670.4 651.747 682.737 653.169C687.509 661.003 691.784 669.193 696.263 677.201L583.5 675.495Q549.098 674.809 514.691 674.5L514.719 641.896Z"/>
	<path fill="#D69144" d="M514.979 680.99C542.198 680.785 569.529 681.664 596.751 682.071L700.211 683.518C702.621 687.78 713.569 705.747 713.783 708.963C700.55 709.528 687.245 709.307 674 709.507Q594.601 710.153 515.202 709.497C515.4 700.027 515.01 690.473 514.979 680.99Z"/>
	<path fill="#F6CB5F" d="M495.016 681.256L508.517 680.978L508.516 709.762L322.25 710.755Q314.827 710.789 307.405 710.671C311.409 702.333 317.414 690.612 323.269 683.489C342.589 683.573 361.949 682.996 381.269 682.786Q438.148 682.44 495.016 681.256Z"/>
	<path fill="#F6CB5F" d="M414.672 716.736C445.997 716.098 477.649 716.481 509.008 716.501C509.084 725.33 508.862 734.177 508.741 743.006C467.265 743.337 425.734 742.501 384.25 742.505C352.597 742.537 320.815 742.859 289.175 742.136C293.176 733.679 298.57 725.36 303.632 717.489C325.901 717.631 348.227 717.139 370.5 717.025C385.172 716.951 400.03 717.52 414.672 716.736Z"/>
	<path fill="#D69144" d="M596.455 715.721L718.679 715.497C723.896 725.068 729.665 734.396 735.19 743.794L654.75 743.245L515.226 743.201L515.27 715.999C542.222 715.998 569.548 716.937 596.455 715.721Z"/>
	<path fill="#FEFEFE" d="M507.443 309.245L508.151 309.621C509.378 313.218 508.513 353.734 508.514 361.607L508.524 524.983C489.684 497.482 473.269 468.662 455.536 440.476C447.505 443.67 439.877 448.744 432.318 452.96C422.15 458.703 411.532 463.59 401.179 468.983C392.389 473.561 383.915 478.594 375.489 483.807Q416.246 430.82 456.464 377.422C473.492 354.954 491.771 332.638 507.443 309.245Z"/>
	<path fill="#E1DCBE" d="M515.022 308.697C517.696 310.127 541.613 343.749 545.477 348.896Q578.679 392.841 612.336 436.44C624.043 451.586 636.554 465.995 647.26 481.898C628.076 472.461 609.248 462.319 590.1 452.798C582.378 448.472 574.635 443.905 566.634 440.123C562.8 448.037 557.415 455.828 552.925 463.423C540.275 484.827 526.818 506.043 515.063 527.936Q514.057 418.317 515.022 308.697Z"/>
	<path fill="#544253" d="M380.65 747.747C403.206 747.243 425.645 747.47 448.122 749.668C499.591 754.702 554.578 768.447 605.306 779.655C648.823 789.269 692.52 798.329 735.941 808.344C726.57 816.216 716.396 822.213 705.876 828.35Q698.319 832.819 690.562 836.931Q682.805 841.044 674.866 844.792Q666.926 848.539 658.821 851.914Q650.716 855.289 642.463 858.283Q634.21 861.277 625.826 863.885Q617.443 866.493 608.948 868.708Q600.452 870.923 591.863 872.741Q583.273 874.559 574.609 875.976Q565.623 877.511 556.569 878.578Q547.516 879.645 538.419 880.241Q529.322 880.838 520.207 880.962Q511.092 881.087 501.982 880.739Q498.03 880.626 494.082 880.431Q490.133 880.235 486.189 879.958Q482.246 879.68 478.309 879.319Q474.372 878.959 470.443 878.517Q466.514 878.075 462.596 877.55Q458.677 877.026 454.771 876.42Q450.864 875.814 446.971 875.126Q443.078 874.439 439.2 873.67Q435.322 872.901 431.461 872.051Q427.6 871.202 423.757 870.272Q419.915 869.342 416.092 868.332Q412.27 867.321 408.47 866.232Q404.67 865.142 400.893 863.973Q397.116 862.804 393.365 861.557Q389.613 860.309 385.889 858.983Q382.164 857.658 378.468 856.254Q374.772 854.851 371.106 853.371Q367.44 851.891 363.806 850.335Q360.172 848.778 356.571 847.146Q352.97 845.514 349.404 843.807Q345.838 842.101 342.309 840.32Q338.779 838.539 335.288 836.684Q331.796 834.83 328.344 832.903Q324.892 830.977 321.481 828.978Q318.07 826.979 314.701 824.91Q311.332 822.841 308.008 820.701Q304.683 818.562 301.404 816.354Q298.125 814.146 294.892 811.869Q291.66 809.593 288.476 807.25Q285.292 804.906 282.157 802.497Q279.023 800.088 275.94 797.614Q272.856 795.139 269.825 792.601C253.672 779.034 239.267 763.878 224.893 748.486C276.771 748.393 328.791 748.874 380.65 747.747Z"/>
	<path fill="#D69144" d="M511.571 285.435C523.676 295.486 536.549 304.654 549.238 313.953L607.662 356.513L776.877 480.05L830.853 519.106C841.361 526.731 852.519 534.245 862.369 542.699C861.989 553.08 856.91 590.698 852.736 599.129C849.706 606.614 849.763 625.146 849.085 634.162C848.441 642.732 847.517 651.282 846.937 659.856L846.831 660.121L847.215 660.219C844.789 668.917 835.952 683.804 831.308 692.021C818.805 677.698 806.954 662.908 794.749 648.343L710.442 547.7C691.053 525.596 671.896 500.248 653.636 477.025Q605.416 415.411 558.098 353.103C542.629 332.823 527.419 312.365 511.677 292.294Q488.768 323.271 465.324 353.844Q428.073 403.816 390.025 453.183Q364.886 486.198 338.827 518.493C330.904 528.291 323.126 538.909 314.397 547.992Q290.879 515.665 266.232 484.19C256.962 495.234 248.361 506.819 239.315 518.045Q205.104 560.026 171.44 602.447C166.349 584.088 163.134 565.474 160.671 546.595C166.249 542.96 171.574 538.6 176.943 534.645Q194.684 521.623 212.229 508.338Q252.397 477.873 293.094 448.119L420.63 353.988C442.587 337.773 464.236 321.259 485.925 304.693C494.416 298.207 503.236 292.117 511.571 285.435Z"/>
	<path fill="#FEFEFE" d="M760.635 481.779L820.782 558.535C831.248 571.867 841.629 586.417 852.736 599.129C849.706 606.614 849.763 625.146 849.085 634.162C848.441 642.732 847.517 651.282 846.937 659.856L846.831 660.121L847.215 660.219C844.789 668.917 835.952 683.804 831.308 692.021C818.805 677.698 806.954 662.908 794.749 648.343L710.442 547.7C718.604 534.485 728.499 522.825 738.106 510.674C745.682 501.092 752.921 491.254 760.635 481.779Z"/>
	<path fill="#F6CB5F" d="M159.435 490.828C159.355 476.127 162.308 460.628 165.053 446.233C177.761 379.607 205.91 324.224 251.562 273.961Q254.452 270.764 257.421 267.64Q260.389 264.516 263.434 261.466Q266.479 258.416 269.598 255.442Q272.717 252.468 275.908 249.573Q279.1 246.677 282.362 243.861Q285.624 241.044 288.955 238.31Q292.285 235.575 295.683 232.923Q299.08 230.271 302.541 227.704Q306.003 225.137 309.527 222.657Q313.051 220.176 316.635 217.783Q320.219 215.39 323.861 213.086Q327.503 210.783 331.201 208.57Q334.899 206.357 338.651 204.236Q342.402 202.115 346.205 200.087Q350.008 198.059 353.859 196.126Q357.711 194.193 361.609 192.355Q365.507 190.518 369.449 188.777Q373.392 187.036 377.376 185.393Q381.36 183.751 385.384 182.207Q389.407 180.663 393.468 179.219Q397.528 177.775 401.623 176.431Q405.718 175.088 409.844 173.846Q413.971 172.604 418.127 171.465Q422.283 170.325 426.466 169.288Q430.649 168.252 434.857 167.319Q439.064 166.386 443.293 165.557Q447.522 164.728 451.771 164.004Q456.019 163.28 460.284 162.661Q464.549 162.042 468.828 161.529Q473.106 161.016 477.397 160.608Q481.687 160.2 485.986 159.899Q490.285 159.597 494.59 159.402Q497.793 159.239 500.999 159.135Q504.204 159.031 507.411 158.986Q510.618 158.94 513.825 158.953Q517.032 158.966 520.238 159.037Q523.445 159.109 526.649 159.239Q529.854 159.369 533.055 159.557Q536.257 159.745 539.455 159.992Q542.652 160.239 545.845 160.544Q549.038 160.849 552.224 161.212Q555.411 161.576 558.59 161.997Q561.769 162.418 564.941 162.898Q568.112 163.377 571.274 163.914Q574.435 164.451 577.587 165.046Q580.739 165.641 583.879 166.293Q587.019 166.945 590.147 167.654Q593.274 168.363 596.389 169.13Q599.503 169.896 602.603 170.719Q605.703 171.542 608.787 172.421Q611.871 173.301 614.939 174.236Q618.006 175.172 621.057 176.163Q624.107 177.154 627.138 178.201Q630.17 179.248 633.182 180.35Q636.193 181.452 639.185 182.609Q642.176 183.766 645.146 184.977Q648.115 186.188 651.063 187.453Q654.01 188.718 656.933 190.037Q659.857 191.356 662.756 192.727Q665.655 194.099 668.528 195.524Q671.401 196.948 674.248 198.425Q677.095 199.902 679.915 201.43Q682.735 202.959 685.526 204.538Q688.317 206.118 691.079 207.748C710.523 218.994 729.238 231.699 745.847 246.875C784.304 282.016 817.491 326.154 837.372 374.554C842.705 387.536 846.877 401.195 850.672 414.694Q853.18 423.353 855.193 432.14Q857.206 440.927 858.718 449.815Q860.229 458.702 861.233 467.661Q862.238 476.62 862.733 485.621C863.451 495.489 863.657 505.282 863.651 515.172C863.583 524.413 863.616 533.519 862.369 542.699C852.519 534.245 841.361 526.731 830.853 519.106L776.877 480.05L607.662 356.513L549.238 313.953C536.549 304.654 523.676 295.486 511.571 285.435C503.236 292.117 494.416 298.207 485.925 304.693C464.236 321.259 442.587 337.773 420.63 353.988L293.094 448.119Q252.397 477.873 212.229 508.338Q194.684 521.623 176.943 534.645C171.574 538.6 166.249 542.96 160.671 546.595C159.996 539.96 159.313 533.367 159.419 526.686C158.158 515.028 159.164 502.565 159.435 490.828Z"/>
	<path fill="#D69144" d="M284.7 343.461C286.917 343.362 289.23 343.762 290.865 345.398C291.81 346.344 292.227 347.607 292.173 348.93C292.077 351.241 290.651 352.538 289.161 354.116C288.571 354.22 287.981 354.323 287.385 354.385C285.849 354.546 284.206 354.007 283.104 352.886C281.961 351.723 281.44 350.34 281.511 348.726C281.623 346.208 282.896 345.002 284.7 343.461Z"/>
	<path fill="#D69144" d="M679.465 304.934C681.875 304.951 684.07 305.126 685.943 306.828Q686.132 306.999 686.304 307.188Q686.475 307.377 686.626 307.583Q686.778 307.788 686.907 308.008Q687.037 308.227 687.144 308.459Q687.251 308.691 687.334 308.932Q687.417 309.173 687.476 309.422Q687.534 309.67 687.567 309.923Q687.6 310.176 687.607 310.431C687.714 313.332 686.002 315.159 684.088 317.092C683.943 317.089 683.798 317.087 683.653 317.083C681.118 317.004 678.917 316.469 677.183 314.476C676.059 313.184 675.598 311.613 675.863 309.92C676.24 307.516 677.627 306.364 679.465 304.934Z"/>
	<path fill="#D69144" d="M472.865 215.452C473.599 215.428 474.313 215.422 475.042 215.536C477.111 215.861 479.247 216.859 480.448 218.638C481.369 220.002 481.667 221.637 481.34 223.246C480.836 225.727 479.112 227.074 477.165 228.486C476.43 228.522 475.696 228.547 474.961 228.525C472.951 228.462 471.155 227.703 469.826 226.158C468.712 224.862 468.307 223.237 468.516 221.555C468.87 218.708 470.674 217.066 472.865 215.452Z"/>
	<path fill="#D69144" d="M760.062 330.048C760.545 330.018 761.03 330.005 761.515 330.013C764.869 330.065 768.118 330.939 770.427 333.523Q770.716 333.847 770.973 334.199Q771.229 334.55 771.449 334.925Q771.669 335.3 771.852 335.695Q772.034 336.09 772.176 336.501Q772.319 336.911 772.42 337.334Q772.521 337.757 772.58 338.188Q772.639 338.619 772.655 339.053Q772.672 339.488 772.645 339.922C772.377 344.428 769.768 346.754 766.558 349.464C765.093 349.548 763.466 349.711 762.011 349.489C759.291 349.074 756.487 347.222 754.962 344.952Q754.692 344.549 754.464 344.121Q754.237 343.692 754.054 343.242Q753.872 342.793 753.736 342.327Q753.601 341.861 753.514 341.384Q753.427 340.906 753.389 340.423Q753.352 339.939 753.364 339.454Q753.376 338.969 753.438 338.488Q753.499 338.006 753.61 337.534C754.485 333.81 756.897 331.87 760.062 330.048Z"/>
	<path fill="#D69144" d="M556.655 199.478C559.148 199.629 561.385 199.794 563.636 200.962C567.63 203.036 569.121 206.511 570.309 210.59C569.817 212.186 569.317 213.765 568.54 215.25C566.884 218.411 564.672 219.926 561.328 220.996C560.311 221.023 559.316 221.046 558.304 220.917C553.775 220.339 551.365 217.645 548.73 214.247C548.353 211.472 547.858 208.699 548.895 205.996C550.275 202.394 553.394 200.983 556.655 199.478Z"/>
	<path fill="#D69144" d="M290.97 265.579C293.746 265.873 296.434 266.185 299.017 267.337Q299.77 267.664 300.486 268.064Q301.202 268.464 301.874 268.934Q302.547 269.404 303.169 269.939Q303.791 270.474 304.357 271.068Q304.923 271.662 305.426 272.31Q305.929 272.958 306.365 273.653Q306.801 274.348 307.166 275.083Q307.53 275.818 307.819 276.586C309.394 280.751 309.324 285.364 307.39 289.4C304.631 295.156 299.776 297.721 294.07 299.785C290.507 299.61 287.23 299.127 284.047 297.407Q283.3 297.009 282.596 296.54Q281.892 296.07 281.238 295.534Q280.584 294.997 279.986 294.398Q279.388 293.8 278.852 293.145Q278.315 292.49 277.847 291.786Q277.378 291.081 276.981 290.334Q276.584 289.586 276.263 288.804Q275.941 288.021 275.699 287.21C274.457 283.021 274.837 278.488 277 274.665C280.061 269.254 285.268 267.088 290.97 265.579Z"/>
	<path fill="#F6CB5F" d="M511.134 229.817C544.792 252.971 577.447 277.707 610.347 301.925L758.484 410.765L823.437 458.084C834.472 466.057 852.318 477.394 861.184 486.97C861.745 487.576 861.374 487.377 862.209 487.534L862.733 485.621C863.451 495.489 863.657 505.282 863.651 515.172C863.583 524.413 863.616 533.519 862.369 542.699C852.519 534.245 841.361 526.731 830.853 519.106L776.877 480.05L607.662 356.513L549.238 313.953C536.549 304.654 523.676 295.486 511.571 285.435C503.236 292.117 494.416 298.207 485.925 304.693C464.236 321.259 442.587 337.773 420.63 353.988L293.094 448.119Q252.397 477.873 212.229 508.338Q194.684 521.623 176.943 534.645C171.574 538.6 166.249 542.96 160.671 546.595C159.996 539.96 159.313 533.367 159.419 526.686C158.158 515.028 159.164 502.565 159.435 490.828C165.437 487.016 171.078 482.374 176.792 478.12L208.598 454.413L306.664 381.275L445.551 278.063L492.331 243.564C498.566 238.955 505.047 234.614 511.134 229.817Z"/>
	<path fill="#D69144" d="M511.134 229.817C544.792 252.971 577.447 277.707 610.347 301.925L758.484 410.765L823.437 458.084C834.472 466.057 852.318 477.394 861.184 486.97C861.745 487.576 861.374 487.377 862.209 487.534L862.733 485.621C863.451 495.489 863.657 505.282 863.651 515.172L645.276 354.766C600.873 322.244 555.541 290.68 512.041 256.97L322.418 397.53Q240.531 457.33 159.62 518.444C159.62 521.171 159.772 523.98 159.419 526.686C158.158 515.028 159.164 502.565 159.435 490.828C165.437 487.016 171.078 482.374 176.792 478.12L208.598 454.413L306.664 381.275L445.551 278.063L492.331 243.564C498.566 238.955 505.047 234.614 511.134 229.817Z"/>
</svg>
